<svg aria-hidden="true" style="position:absolute;width:0;height:0" xmlns="http://www.w3.org/2000/svg" overflow="hidden"><defs><symbol id="icon-android" viewBox="0 0 32 32"><path d="M4.342 10.435H4.26c-1.051 0-1.908.86-1.908 1.908v8.306c0 1.052.857 1.909 1.908 1.909h.083c1.051 0 1.908-.86 1.908-1.909v-8.306a1.916 1.916 0 00-1.909-1.908zm2.821 13.418c0 .965.788 1.75 1.753 1.75h1.873v4.486c0 1.054.86 1.91 1.908 1.91h.082c1.052 0 1.91-.858 1.91-1.91v-4.486h2.618v4.486c0 1.054.862 1.91 1.91 1.91h.081a1.913 1.913 0 001.909-1.91v-4.486h1.875c.963 0 1.752-.786 1.752-1.75V10.739H7.163v13.114zM20.401 2.786L21.889.489a.315.315 0 00-.093-.437.313.313 0 00-.437.093l-1.543 2.376a10.06 10.06 0 00-3.815-.741c-1.366 0-2.656.266-3.817.741L10.644.145a.316.316 0 00-.44-.093.315.315 0 00-.093.437L11.6 2.786C8.915 4.102 7.104 6.582 7.104 9.427c0 .175.011.347.026.518h17.741a5.91 5.91 0 00.025-.518c0-2.845-1.812-5.325-4.496-6.641zm-8.514 4.113a.853.853 0 110-1.704.853.853 0 110 1.704zm8.225 0a.853.853 0 11-.003-1.705.853.853 0 01.003 1.705zm7.627 3.536h-.079c-1.051 0-1.91.86-1.91 1.908v8.306c0 1.052.861 1.909 1.91 1.909h.081c1.052 0 1.908-.86 1.908-1.909v-8.306a1.914 1.914 0 00-1.909-1.908z"/></symbol><symbol id="icon-apple" viewBox="0 0 32 32"><path d="M4.274 11.763c-2.705 4.695-.986 11.819 2.006 16.139C7.773 30.062 9.285 32 11.356 32l.118-.002c.973-.039 1.676-.338 2.356-.628.763-.325 1.552-.662 2.79-.662 1.178 0 1.929.325 2.656.64.716.31 1.454.631 2.545.61 2.333-.043 3.765-2.135 5.028-3.981a17.623 17.623 0 002.203-4.513l.009-.028a.263.263 0 00-.158-.33c-.411-.168-4.014-1.766-4.052-6.123-.035-3.54 2.703-5.414 3.252-5.754l.026-.016a.263.263 0 00.074-.368c-1.89-2.766-4.787-3.183-5.953-3.233a5.214 5.214 0 00-.519-.025c-1.37 0-2.682.517-3.736.933-.728.287-1.356.535-1.79.535-.487 0-1.119-.251-1.851-.541-.979-.389-2.088-.829-3.263-.829l-.083.001c-2.731.04-5.312 1.603-6.734 4.077z"/><path d="M22.253 0c-1.654.067-3.638 1.085-4.823 2.474-1.008 1.167-1.992 3.114-1.733 5.076a.261.261 0 00.24.227c.112.009.226.013.339.013 1.617 0 3.362-.895 4.553-2.335 1.254-1.521 1.888-3.473 1.696-5.222A.263.263 0 0022.254 0z"/></symbol><symbol id="icon-facebook" viewBox="0 0 32 32"><path fill="var(--color1, #fff)" d="M18.466 10.485V7.728c0-.414.019-.735.058-.961s.126-.45.262-.67c.136-.22.356-.372.66-.456s.709-.126 1.214-.126h2.757V.001h-4.408c-2.55 0-4.382.605-5.495 1.815s-1.67 2.993-1.67 5.35v3.32H8.543v5.515h3.301v16h6.622v-16h4.407l.583-5.515h-4.99z"/></symbol><symbol id="icon-linkedin" viewBox="0 0 32 32"><path fill="var(--color1, #fff)" d="M0 10h7.156v22H0V10zm26.648.258c-.076-.024-.148-.05-.228-.072a4.639 4.639 0 00-.29-.056 6.414 6.414 0 00-1.284-.13c-4.172 0-6.818 3.034-7.69 4.206V10H10v22h7.156V20s5.408-7.532 7.69-2v14H32V17.154c0-3.324-2.278-6.094-5.352-6.896zM7 3.5a3.5 3.5 0 11-7 0 3.5 3.5 0 017 0z"/></symbol><symbol id="icon-twitter" viewBox="0 0 32 32"><path fill="var(--color1, #fff)" d="M32 6.078c-1.19.522-2.458.868-3.78 1.036a6.523 6.523 0 002.886-3.626 13.11 13.11 0 01-4.16 1.588A6.574 6.574 0 0022.154 3c-3.632 0-6.556 2.948-6.556 6.562 0 .52.044 1.02.152 1.496-5.454-.266-10.28-2.88-13.522-6.862a6.605 6.605 0 00-.898 3.316 6.57 6.57 0 002.914 5.452 6.479 6.479 0 01-2.964-.808v.072c0 3.188 2.274 5.836 5.256 6.446a6.548 6.548 0 01-1.72.216 5.8 5.8 0 01-1.242-.112c.85 2.598 3.262 4.508 6.13 4.57a13.182 13.182 0 01-8.134 2.798c-.538 0-1.054-.024-1.57-.09A18.469 18.469 0 0010.064 29c12.072 0 18.672-10 18.672-18.668 0-.29-.01-.57-.024-.848A13.087 13.087 0 0032 6.078z"/></symbol><symbol id="icon-bell" viewBox="0 0 32 32"><path d="M29.238 26.991l-2.289-3.816a11.338 11.338 0 01-1.616-5.832V14c0-4.22-2.816-7.789-6.667-8.94V2.667C18.666 1.196 17.47 0 15.999 0s-2.667 1.196-2.667 2.667V5.06C9.481 6.211 6.665 9.78 6.665 14v3.343c0 2.053-.559 4.069-1.615 5.831L2.761 26.99a.667.667 0 00.571 1.011h25.333a.668.668 0 00.572-1.009zm-17.437 2.342C12.553 30.904 14.145 32 16 32s3.447-1.096 4.199-2.667h-8.398z"/></symbol><symbol id="icon-board" viewBox="0 0 32 32"><path d="M32.008 11.198V7.996h-3.202V4.794a3.212 3.212 0 00-3.202-3.202H3.192A3.212 3.212 0 00-.01 4.794v22.412a3.212 3.212 0 003.202 3.202h22.412a3.212 3.212 0 003.202-3.202v-3.202h3.202v-3.202h-3.202V17.6h3.202v-3.202h-3.202v-3.202h3.202zm-6.403 16.008H3.193V4.794h22.412v22.412zm-19.21-9.605h8.004v6.403H6.395zM16 7.996h6.403v4.802H16zm-9.605 0h8.004V16H6.395zM16 14.399h6.403v9.605H16z"/></symbol><symbol id="icon-hub" viewBox="0 0 32 32"><path d="M24.889 23.111L17.778 16v-5.653c2.062-.747 3.556-2.702 3.556-5.013 0-2.951-2.382-5.333-5.333-5.333s-5.333 2.382-5.333 5.333c0 2.311 1.493 4.267 3.556 5.013V16l-7.111 7.111H.002V32h8.889v-5.422l7.111-7.467 7.111 7.467V32h8.889v-8.889h-7.111z"/></symbol><symbol id="icon-share" viewBox="0 0 32 32"><path d="M26.03 20.338c-1.853 0-3.487.883-4.554 2.234l-9.903-5.064c.13-.483.223-.983.223-1.509 0-.572-.111-1.111-.265-1.636l9.859-5.041c1.062 1.413 2.738 2.336 4.642 2.336a5.829 5.829 0 100-11.659 5.83 5.83 0 00-5.829 5.829c0 .527.093 1.028.224 1.513l-9.901 5.064c-1.069-1.353-2.706-2.239-4.562-2.239-3.222 0-5.829 2.611-5.829 5.832s2.607 5.83 5.829 5.83c1.907 0 3.581-.926 4.648-2.341l9.855 5.041c-.154.523-.267 1.066-.267 1.64a5.83 5.83 0 005.829 5.83 5.83 5.83 0 005.833-5.83 5.827 5.827 0 00-5.832-5.832z"/></symbol><symbol id="icon-star" viewBox="0 0 32 32"><path d="M31.972 12.36a.574.574 0 00-.463-.39l-10.362-1.506-4.634-9.389a.572.572 0 00-1.026 0l-4.634 9.39L.491 11.971a.573.573 0 00-.318.977l7.498 7.309L5.9 30.577a.574.574 0 00.83.604l9.269-4.872 9.268 4.872a.576.576 0 00.604-.043.57.57 0 00.227-.56l-1.77-10.32 7.498-7.309a.572.572 0 00.144-.587z"/></symbol><symbol id="icon-thumb" viewBox="0 0 32 32"><path d="M0 30.545h5.818V13.09H0v17.455zm32-16c0-1.6-1.309-2.909-2.909-2.909h-9.164l1.455-6.691v-.436c0-.582-.291-1.164-.582-1.6l-1.6-1.455-9.6 9.6c-.582.436-.873 1.164-.873 2.036v14.545c0 1.6 1.309 2.909 2.909 2.909h13.091c1.164 0 2.182-.727 2.618-1.745l4.364-10.327c.145-.291.145-.727.145-1.018v-2.909h.145z"/></symbol></defs></svg>